<?xml version="1.0" standalone="no"?>
<!DOCTYPE svg PUBLIC "-//W3C//DTD SVG 20010904//EN"
 "http://www.w3.org/TR/2001/REC-SVG-20010904/DTD/svg10.dtd">
<svg version="1.0" xmlns="http://www.w3.org/2000/svg"
 width="396.000000pt" height="396.000000pt" viewBox="0 0 396.000000 396.000000"
 preserveAspectRatio="xMidYMid meet">
<metadata>
Created by potrace 1.14, written by Peter Selinger 2001-2017
</metadata>
<g transform="translate(0.000000,396.000000) scale(0.100000,-0.100000)"
fill="#000000" stroke="none">
<path d="M1380 3515 c-1 -5 -3 -19 -6 -30 -2 -11 -6 -42 -9 -70 -3 -27 -8 -61
-10 -75 -2 -14 -7 -50 -10 -80 -3 -30 -8 -70 -11 -87 -11 -84 -13 -101 -19
-148 -19 -162 -26 -196 -35 -190 -4 2 -20 31 -35 62 -62 127 -153 310 -170
343 -11 19 -20 37 -20 40 -6 22 -78 160 -84 160 -5 0 -2 -26 5 -57 7 -31 15
-77 18 -102 3 -25 8 -59 11 -76 5 -28 8 -42 20 -105 3 -14 8 -43 11 -65 7 -47
11 -71 18 -105 13 -66 26 -163 22 -167 -2 -2 -18 10 -34 29 -17 18 -66 69
-109 114 -90 94 -272 288 -302 323 -12 13 -24 22 -27 18 -3 -3 62 -139 145
-301 83 -163 151 -299 151 -301 0 -9 -36 -5 -46 4 -5 5 -27 19 -49 31 -74 41
-460 262 -470 270 -5 4 -19 10 -29 14 -16 5 -17 4 -6 -9 15 -18 123 -130 326
-337 134 -137 156 -169 103 -153 -12 4 -31 8 -42 10 -20 2 -196 40 -242 52
-11 3 -28 5 -37 5 -10 -1 -18 2 -18 6 0 4 -8 8 -17 8 -22 1 -55 7 -168 33 -49
11 -94 21 -100 21 -17 0 9 -18 75 -53 36 -18 147 -79 247 -135 100 -56 187
-102 193 -102 5 0 10 -4 10 -8 0 -4 17 -14 37 -21 33 -12 35 -15 17 -21 -22
-8 -112 -19 -209 -25 -33 -2 -82 -6 -110 -9 -60 -7 -204 -18 -262 -20 -23 -1
-45 -5 -49 -8 -3 -4 -12 -4 -19 -2 -7 3 -16 0 -20 -6 -3 -6 -3 -10 2 -9 4 1
19 -1 33 -4 14 -4 41 -9 60 -12 60 -10 73 -13 150 -30 41 -10 84 -19 95 -20
11 -2 20 -4 20 -5 0 -1 9 -3 20 -5 49 -7 252 -48 270 -55 17 -6 10 -12 -40
-35 -33 -15 -64 -28 -70 -29 -5 -2 -21 -8 -35 -14 -44 -18 -75 -30 -80 -29 -3
0 -25 -10 -50 -23 -25 -13 -46 -22 -48 -21 -1 1 -23 -7 -48 -19 -26 -11 -53
-20 -60 -20 -8 0 -14 -5 -14 -12 0 -6 -3 -8 -7 -5 -3 4 -11 3 -17 -1 -6 -5
-39 -19 -74 -32 -71 -26 -86 -39 -39 -35 17 2 64 6 102 10 39 3 86 8 105 10
19 2 70 6 112 10 43 3 86 8 96 10 11 2 55 6 98 10 43 4 91 9 107 10 46 6 36
-8 -63 -85 -25 -19 -47 -37 -50 -40 -4 -4 -77 -63 -115 -93 -5 -4 -21 -17 -36
-30 -14 -12 -40 -33 -58 -47 -17 -14 -44 -35 -59 -48 -15 -13 -49 -39 -75 -60
-51 -39 -49 -53 5 -28 18 8 74 31 123 51 50 20 114 47 143 61 29 13 59 24 67
24 8 0 15 5 15 10 0 6 11 10 24 10 13 0 29 7 36 15 7 8 18 15 25 15 7 0 42 13
78 29 51 23 67 26 71 16 3 -8 2 -15 -2 -17 -4 -2 -59 -82 -122 -178 -63 -96
-117 -177 -120 -180 -3 -3 -21 -30 -40 -60 -19 -30 -37 -57 -40 -60 -3 -3 -17
-23 -30 -45 l-24 -39 26 19 c14 11 24 23 22 27 -2 3 0 8 5 10 9 3 211 265 211
273 0 3 8 13 18 23 9 10 28 33 42 52 28 37 76 100 88 115 4 6 36 48 72 95 35
47 70 92 77 100 12 13 79 99 163 210 14 18 43 56 65 85 22 28 51 67 65 85 14
18 31 39 38 46 6 7 12 17 12 22 0 6 4 12 8 14 4 2 30 32 56 68 27 36 56 71 64
78 9 6 12 12 8 12 -4 0 -1 6 6 13 7 8 22 26 33 41 11 15 30 39 42 54 12 15 94
122 182 237 88 116 170 221 181 235 11 14 56 72 100 130 44 58 86 112 93 120
7 8 19 24 27 34 15 19 14 19 -12 2 -16 -10 -28 -21 -28 -25 0 -3 -18 -26 -41
-51 -22 -25 -55 -61 -73 -80 -17 -19 -41 -47 -52 -62 -12 -15 -24 -24 -28 -21
-3 3 -6 2 -6 -4 0 -5 -9 -21 -20 -34 -38 -45 -115 -132 -153 -173 l-38 -41 6
60 c7 69 11 98 20 157 4 24 8 55 11 69 2 14 6 41 8 60 3 19 8 50 11 70 3 20 8
51 10 70 6 58 16 122 25 162 6 29 5 37 -6 37 -8 0 -14 -4 -14 -9 0 -5 -57
-134 -126 -288 -69 -153 -131 -289 -136 -303 -12 -31 -23 -15 -31 45 -3 22 -8
55 -11 73 -13 72 -17 98 -21 127 -2 17 -6 44 -9 60 -3 17 -9 50 -12 75 -3 25
-8 54 -10 65 -3 11 -7 40 -10 65 -8 58 -31 168 -34 155z"/>
<path d="M2328 3063 c-24 -21 -61 -54 -83 -73 -75 -65 -395 -391 -395 -403 1
-24 108 -144 330 -370 l165 -168 30 26 c17 14 50 43 75 63 25 20 50 41 55 47
6 6 76 59 158 119 81 60 147 110 147 112 0 2 -55 89 -123 192 -134 202 -133
201 -234 374 -37 65 -71 118 -75 118 -5 0 -27 -17 -50 -37z"/>
<path d="M1652 2358 c-113 -144 -362 -491 -362 -505 0 -3 -10 -20 -23 -37 -35
-48 -107 -164 -107 -175 0 -5 33 -21 73 -36 107 -40 497 -175 507 -175 4 0 33
30 65 68 99 116 216 242 324 349 58 56 103 104 100 106 -83 64 -286 247 -426
385 -46 45 -88 82 -93 82 -4 0 -30 -28 -58 -62z"/>
<path d="M2814 2192 c-109 -74 -162 -112 -180 -127 -6 -5 -47 -37 -89 -69
l-78 -59 44 -40 c24 -22 69 -64 101 -92 l56 -52 84 64 c45 36 137 101 203 145
66 45 119 85 117 91 -1 5 -8 15 -15 22 -7 7 -39 51 -72 98 -33 48 -62 86 -66
87 -3 0 -50 -30 -105 -68z"/>
<path d="M3160 1922 c-46 -22 -283 -181 -288 -194 -2 -4 -10 -8 -17 -8 -7 0
-15 -3 -17 -7 -1 -5 -46 -42 -98 -84 -52 -42 -111 -91 -131 -110 -103 -97
-130 -122 -194 -191 -92 -97 -121 -131 -176 -203 -99 -129 -149 -208 -121
-192 6 5 56 12 142 23 19 2 51 6 70 9 87 12 180 20 330 31 52 3 113 8 135 10
111 9 551 2 650 -10 17 -2 62 -7 100 -10 39 -4 77 -9 85 -11 8 -3 32 -7 54
-11 21 -3 48 -8 60 -10 11 -3 32 -7 46 -10 14 -3 48 -11 77 -19 28 -8 56 -15
62 -15 10 0 -15 39 -75 115 -8 11 -23 32 -32 48 -9 15 -20 27 -24 27 -4 0 -8
7 -8 15 0 8 -3 15 -7 15 -5 0 -19 17 -33 38 -14 20 -50 70 -81 110 -47 62 -55
79 -53 110 8 115 16 210 19 229 4 25 -7 29 -86 32 l-55 2 -3 -43 c-2 -24 -3
-48 -4 -55 0 -14 -24 -6 -30 11 -6 14 -196 277 -207 286 -3 3 -16 22 -29 43
-23 37 -33 42 -61 29z m-92 -425 l3 -87 -89 0 -88 0 2 88 c1 48 2 87 3 87 1 0
38 0 84 0 l82 -1 3 -87z m212 84 c13 -1 16 -16 15 -81 -1 -44 -4 -82 -6 -85
-7 -6 -159 -9 -165 -2 -9 9 -5 160 4 166 9 5 101 6 152 2z m-210 -307 c0 -46
-3 -85 -7 -85 -22 -4 -140 -6 -154 -3 -12 3 -15 19 -13 82 1 42 2 80 3 85 0 4
39 7 86 6 l85 -1 0 -84z m222 68 c4 -15 3 -88 -1 -143 -1 -13 -15 -15 -83 -15
l-83 1 -5 55 c-3 30 -3 69 -2 86 l4 31 83 1 c70 0 84 -2 87 -16z"/>
<path d="M2298 1793 c-29 -26 -133 -128 -232 -227 l-179 -181 34 -14 c19 -8
39 -15 46 -17 7 -1 63 -19 124 -39 108 -36 113 -37 126 -19 35 48 128 150 236
258 98 98 116 121 105 131 -26 26 -193 155 -200 155 -4 0 -31 -21 -60 -47z"/>
<path d="M994 1369 c-9 -18 -24 -47 -34 -64 -127 -225 -390 -763 -390 -796 0
-7 90 45 136 78 13 10 38 25 154 91 109 62 319 165 432 212 76 31 78 33 140
122 35 49 91 127 125 171 35 45 63 85 63 89 0 6 -64 23 -130 33 -19 4 -55 11
-80 16 -25 6 -56 13 -70 15 -14 3 -79 16 -145 30 -189 41 -181 41 -201 3z"/>
<path d="M1758 1226 c-12 -13 -45 -52 -73 -87 -27 -35 -52 -66 -55 -69 -3 -3
-17 -20 -30 -39 -22 -31 -22 -34 -4 -28 95 28 233 68 249 71 11 3 49 11 85 20
36 8 77 17 93 20 44 8 70 18 85 32 17 18 9 30 -25 37 -16 3 -71 16 -123 27
-52 12 -106 23 -120 26 -14 3 -32 7 -42 10 -9 3 -26 -6 -40 -20z"/>
</g>
</svg>
