<?xml version="1.0" encoding="UTF-8"?>
<svg width="1200pt" height="1200pt" version="1.1" viewBox="0 0 1200 1200" xmlns="http://www.w3.org/2000/svg">
 <path d="m890.58 308.9 63.023-62.867c18.742-18.91 51.742-19.043 70.668 0 19.535 19.57 19.535 51.133 0 70.68l-63 62.965c-9.2891 9.3594-21.91 14.688-35.34 14.688-13.523 0-26.578-5.6289-35.832-15.18-9.0469-9.0586-14.27-21.66-14.27-35.102 0.13672-13.285 5.2969-25.883 14.75-35.184zm-340.55-188.57c0-27.625 22.402-50.016 49.859-50.016 27.684 0 50.062 22.391 50.062 50.016v89.004c0 27.574-22.379 49.98-50.062 49.98-27.469 0-49.859-22.402-49.859-49.98zm46.043 201.02c191.88 0 347.44 155.64 347.44 347.44 0 9.3008-0.66016 18.516-1.2461 27.719h-91.98c1.1523-9.0977 1.8008-18.406 1.8008-27.719 0-141.02-114.77-255.84-256-255.84-141.12 0-255.71 114.82-255.71 255.84 0 9.3008 0.58984 18.625 1.5859 27.719h-91.992c-0.60156-9.2031-1.0938-18.406-1.0938-27.719-0.003906-191.8 155.57-347.44 347.19-347.44zm-420.36-75.324c18.91-19.176 52.008-18.91 70.777 0.15625l62.867 63.059c9.3008 8.9648 14.578 21.406 14.676 34.703 0.097656 13.57-5.0625 26.27-14.676 35.832-9.2148 9.3594-21.742 14.578-35.34 14.578-13.273 0-25.883-5.125-35.34-14.578l-62.965-63.07c-9.3594-9.2031-14.531-21.648-14.531-35.102-0.15625-13.32 5.0781-25.969 14.531-35.578zm-175.71 424.25c0-27.527 22.402-49.922 49.859-49.922h89.102c27.684 0 50.074 22.391 50.074 49.922 0 27.59-22.402 50.125-50.074 50.125h-89.09c-27.469 0-49.871-22.535-49.871-50.125zm301.05 459.42h-218.91c-7.2227 0-13.934-3.7695-17.82-9.8281-3.5742-5.9883-3.9844-13.703-0.69531-20.004l166.09-335.9c3.4805-7.0781 10.801-11.531 18.66-11.531h218.91c7.1641 0 13.934 3.5742 17.617 9.7812 3.875 6.1445 4.2852 13.703 0.89844 20.051l-166.02 335.84c-3.457 7.1289-10.777 11.594-18.734 11.594zm294.87 0h-219.12c-7.0664 0-13.848-3.7695-17.508-9.8281-3.875-5.9883-4.1406-13.836-0.99609-20.004l166.25-335.9c3.4805-7.0781 10.645-11.531 18.602-11.531h218.91c7.3672 0 13.945 3.5742 17.82 9.7812 3.6836 6.1445 4.0781 13.703 0.83984 20.051l-166.23 335.84c-3.3242 7.1289-10.609 11.594-18.562 11.594zm479.65-347.44-166.25 335.84c-3.4805 7.1289-10.766 11.594-18.73 11.594h-218.86c-7.332 0-13.934-3.793-17.773-9.8398-3.8047-5.9766-4.1289-13.824-0.88672-20.016l166.15-335.88c3.5898-7.0781 10.645-11.543 18.77-11.543h218.84c7.2734 0 13.848 3.5742 17.734 9.793 3.6602 6.125 4.082 13.688 0.99609 20.047zm74.508-61.859h-89.258c-27.48 0-49.957-22.535-49.957-50.125 0-27.527 22.477-49.922 49.957-49.922h89.258c27.527 0 49.922 22.391 49.922 49.922 0 27.59-22.391 50.125-49.922 50.125z"/>
</svg>
